<?xml version="1.0" encoding="UTF-8" standalone="no"?>
<!-- Generated by SVGo -->

<svg
   xmlns:dc="http://purl.org/dc/elements/1.1/"
   xmlns:cc="http://creativecommons.org/ns#"
   xmlns:rdf="http://www.w3.org/1999/02/22-rdf-syntax-ns#"
   xmlns:svg="http://www.w3.org/2000/svg"
   xmlns="http://www.w3.org/2000/svg"
   xmlns:sodipodi="http://sodipodi.sourceforge.net/DTD/sodipodi-0.dtd"
   xmlns:inkscape="http://www.inkscape.org/namespaces/inkscape"
   width="181mm"
   height="181mm"
   viewBox="0 0 181 181"
   id="svg2"
   version="1.1"
   inkscape:version="0.91 r13725"
   sodipodi:docname="4x5keypad.svg">
  <metadata
     id="metadata20">
    <rdf:RDF>
      <cc:Work
         rdf:about="">
        <dc:format>image/svg+xml</dc:format>
        <dc:type
           rdf:resource="http://purl.org/dc/dcmitype/StillImage" />
        <dc:title></dc:title>
      </cc:Work>
    </rdf:RDF>
  </metadata>
  <defs
     id="defs18" />
  <sodipodi:namedview
     pagecolor="#ffffff"
     bordercolor="#666666"
     borderopacity="1"
     objecttolerance="10"
     gridtolerance="10"
     guidetolerance="31"
     inkscape:pageopacity="0"
     inkscape:pageshadow="2"
     inkscape:window-width="1366"
     inkscape:window-height="715"
     id="namedview16"
     showgrid="true"
     showguides="true"
     inkscape:guide-bbox="true"
     inkscape:zoom="1"
     inkscape:cx="367"
     inkscape:cy="290"
     inkscape:window-x="-8"
     inkscape:window-y="22"
     inkscape:window-maximized="1"
     inkscape:current-layer="svg2"
     inkscape:document-units="mm"
     showborder="false">
    <sodipodi:guide
       position="0,181.00001"
       orientation="0,1"
       id="guide4189"
       inkscape:label=""
       inkscape:color="rgb(0,0,255)" />
    <sodipodi:guide
       position="0,180.62223"
       orientation="1,0"
       id="guide4193" />
    <sodipodi:guide
       position="181.00001,181.00001"
       orientation="1,0"
       id="guide4203"
       inkscape:label=""
       inkscape:color="rgb(0,0,255)" />
    <sodipodi:guide
       position="181.00001,0"
       orientation="0,1"
       id="guide4209"
       inkscape:label=""
       inkscape:color="rgb(0,0,255)" />
  </sodipodi:namedview>
  <polygon
     points="5,91.351 5,5 120.401,5 120.401,91.351 "
     style="fill:none;stroke:#0000ff;stroke-width:0.0106629;stroke-miterlimit:4;stroke-dasharray:none;stroke-opacity:1"
     id="polygon4-9"
     transform="matrix(0.95154887,0,0,0.92431047,-4.2825896,90.261995)" />
  <polygon
     points="119.228,89.231 119.3,88.776 119.228,88.32 119.019,87.909 118.692,87.582 118.281,87.373 117.826,87.301 117.37,87.373 116.959,87.582 116.632,87.909 116.423,88.32 116.351,88.776 116.423,89.231 116.632,89.642 116.959,89.969 117.37,90.178 117.826,90.25 118.281,90.178 118.692,89.969 119.019,89.642 "
     style="fill:none;stroke:#0000ff;stroke-width:0.01040152;stroke-miterlimit:4;stroke-dasharray:none;stroke-opacity:1"
     id="polygon6-3"
     transform="matrix(1.0000669,0,0,0.92422463,-11.877535,81.286269)" />
  <polygon
     points="8.977,89.231 9.05,88.776 8.977,88.32 8.768,87.909 8.441,87.582 8.029,87.373 7.575,87.301 7.119,87.373 6.708,87.582 6.381,87.909 6.172,88.32 6.1,88.776 6.172,89.231 6.381,89.642 6.708,89.969 7.119,90.178 7.575,90.25 8.029,90.178 8.441,89.969 8.768,89.642 "
     style="fill:none;stroke:#0000ff;stroke-width:0.01040107;stroke-miterlimit:4;stroke-dasharray:none;stroke-opacity:1"
     id="polygon8-8"
     transform="matrix(1.000156,0,0,0.9242219,-2.6196988,81.286509)" />
  <polygon
     points="119.228,8.029 119.3,7.575 119.228,7.119 119.019,6.708 118.692,6.381 118.281,6.172 117.826,6.1 117.37,6.172 116.959,6.381 116.632,6.708 116.423,7.119 116.351,7.575 116.423,8.029 116.632,8.441 116.959,8.768 117.37,8.977 117.826,9.05 118.281,8.977 118.692,8.768 119.019,8.441 "
     style="fill:none;stroke:#0000ff;stroke-width:0.01040152;stroke-miterlimit:4;stroke-dasharray:none;stroke-opacity:1"
     id="polygon12-4"
     transform="matrix(1.0000669,0,0,0.92422463,-11.877532,99.333271)" />
  <polygon
     points="9.05,7.575 8.977,7.119 8.768,6.708 8.441,6.381 8.029,6.172 7.575,6.1 7.119,6.172 6.708,6.381 6.381,6.708 6.172,7.119 6.1,7.575 6.172,8.029 6.381,8.441 6.708,8.768 7.119,8.977 7.575,9.05 8.029,8.977 8.441,8.768 8.768,8.441 8.977,8.029 "
     style="fill:none;stroke:#0000ff;stroke-width:0.01040108;stroke-miterlimit:4;stroke-dasharray:none;stroke-opacity:1"
     id="polygon14-4"
     transform="matrix(1.0001542,0,0,0.92422195,-2.6196852,99.333291)" />
  <path
     style="fill:none;stroke:#0000ff;stroke-width:0.01;stroke-miterlimit:4;stroke-dasharray:none;stroke-opacity:1"
     d="m 14.387595,35.600551 93.958085,0 -5.7e-4,0.97844 2.99263,1 -2.99262,1 5.6e-4,0.97721 -93.958075,0 -2.9e-4,-0.97721 -3.02963,-0.99821 3.02963,-1.00179 z"
     id="polygon10-2-2-5"
     inkscape:connector-curvature="0"
     sodipodi:nodetypes="ccccccccccc" />
  <path
     style="fill:none;stroke:#0000ff;stroke-width:0.01;stroke-miterlimit:4;stroke-dasharray:none;stroke-opacity:1"
     d="m 14.387596,29.342775 93.958084,0 -5.6e-4,0.97844 2.99263,1 -2.99262,1 5.6e-4,0.97721 -93.958076,0 -2.82e-4,-0.97721 -3.029647,-0.99821 3.02963,-1.00179 z"
     id="polygon10-2-2-5-1"
     inkscape:connector-curvature="0"
     sodipodi:nodetypes="ccccccccccc" />
  <path
     style="fill:none;stroke:#0000ff;stroke-width:0.01;stroke-miterlimit:4;stroke-dasharray:none;stroke-opacity:1"
     d="m 14.387599,23.649443 93.958181,0 -5.7e-4,0.97844 2.99264,1 -2.99263,1 5.7e-4,0.97721 -93.958172,0 -2.83e-4,-0.97721 -3.02965,-0.99821 3.029634,-1.00179 z"
     id="polygon10-2-2-5-5"
     inkscape:connector-curvature="0"
     sodipodi:nodetypes="ccccccccccc" />
  <path
     style="fill:none;stroke:#0000ff;stroke-width:0.01;stroke-miterlimit:4;stroke-dasharray:none;stroke-opacity:1"
     d="m 14.3876,17.956114 93.95818,0 -5.7e-4,0.97844 2.99264,0.999999 -2.99262,0.999999 5.6e-4,0.977209 -93.958169,0 -2.82e-4,-0.977209 -3.029654,-0.998209 3.029634,-1.001789 z"
     id="polygon10-2-2-5-1-3"
     inkscape:connector-curvature="0"
     sodipodi:nodetypes="ccccccccccc" />
  <g
     id="g4423-6-0"
     transform="matrix(0,-0.99999849,1,0,12.417984,232.23106)"
     style="stroke:#0000ff;stroke-width:0.01000001;stroke-miterlimit:4;stroke-dasharray:none;stroke-opacity:1">
    <path
       sodipodi:nodetypes="ccccccccccc"
       inkscape:connector-curvature="0"
       id="polygon4-7-8-7"
       d="m 188.97507,0.0250494 0,0.9751462 -2.97507,1 2.97507,1.0000001 0,74.0000003 -2.97507,1 2.97507,1 0,0.974751 -7.94949,0 0,-79.9498976 z"
       style="fill:none;stroke:#0000ff;stroke-width:0.01000001;stroke-miterlimit:4;stroke-dasharray:none;stroke-opacity:1" />
    <polygon
       transform="matrix(1.000156,0,0,0.9242219,178.0003,-13.504602)"
       id="polygon8-0-9-0"
       style="fill:none;stroke:#0000ff;stroke-width:0.01040108;stroke-miterlimit:4;stroke-dasharray:none;stroke-opacity:1"
       points="7.575,87.301 7.119,87.373 6.708,87.582 6.381,87.909 6.172,88.32 6.1,88.776 6.172,89.231 6.381,89.642 6.708,89.969 7.119,90.178 7.575,90.25 8.029,90.178 8.441,89.969 8.768,89.642 8.977,89.231 9.05,88.776 8.977,88.32 8.768,87.909 8.441,87.582 8.029,87.373 " />
    <polygon
       transform="matrix(1.0001542,0,0,0.92422195,178.00031,4.542183)"
       id="polygon14-1-9-6"
       style="fill:none;stroke:#0000ff;stroke-width:0.01040109;stroke-miterlimit:4;stroke-dasharray:none;stroke-opacity:1"
       points="7.119,6.172 6.708,6.381 6.381,6.708 6.172,7.119 6.1,7.575 6.172,8.029 6.381,8.441 6.708,8.768 7.119,8.977 7.575,9.05 8.029,8.977 8.441,8.768 8.768,8.441 8.977,8.029 9.05,7.575 8.977,7.119 8.768,6.708 8.441,6.381 8.029,6.172 7.575,6.1 " />
  </g>
  <g
     id="g4423-6-9"
     transform="matrix(0,0.99999849,1,0,12.135761,-106.54015)"
     style="stroke:#0000ff;stroke-width:0.01000001;stroke-miterlimit:4;stroke-dasharray:none;stroke-opacity:1">
    <path
       sodipodi:nodetypes="ccccccccccc"
       inkscape:connector-curvature="0"
       id="polygon4-7-8-2"
       d="m 188.97507,0.0250494 0,0.9751462 -2.97507,1 2.97507,1.0000001 0,74.0000003 -2.97507,1 2.97507,1 0,0.974751 -7.94949,0 0,-79.9498976 z"
       style="fill:none;stroke:#0000ff;stroke-width:0.01000001;stroke-miterlimit:4;stroke-dasharray:none;stroke-opacity:1" />
    <polygon
       transform="matrix(1.000156,0,0,0.9242219,178.0003,-13.504602)"
       id="polygon8-0-9-7"
       style="fill:none;stroke:#0000ff;stroke-width:0.01040108;stroke-miterlimit:4;stroke-dasharray:none;stroke-opacity:1"
       points="8.441,89.969 8.768,89.642 8.977,89.231 9.05,88.776 8.977,88.32 8.768,87.909 8.441,87.582 8.029,87.373 7.575,87.301 7.119,87.373 6.708,87.582 6.381,87.909 6.172,88.32 6.1,88.776 6.172,89.231 6.381,89.642 6.708,89.969 7.119,90.178 7.575,90.25 8.029,90.178 " />
    <polygon
       transform="matrix(1.0001542,0,0,0.92422195,178.00031,4.542183)"
       id="polygon14-1-9-3"
       style="fill:none;stroke:#0000ff;stroke-width:0.01040109;stroke-miterlimit:4;stroke-dasharray:none;stroke-opacity:1"
       points="8.768,8.441 8.977,8.029 9.05,7.575 8.977,7.119 8.768,6.708 8.441,6.381 8.029,6.172 7.575,6.1 7.119,6.172 6.708,6.381 6.381,6.708 6.172,7.119 6.1,7.575 6.172,8.029 6.381,8.441 6.708,8.768 7.119,8.977 7.575,9.05 8.029,8.977 8.441,8.768 " />
  </g>
  <g
     id="g4778"
     transform="matrix(-1,0,0,-1,39.144774,118.72697)"
     style="stroke:#0000ff;stroke-width:0.01;stroke-miterlimit:4;stroke-dasharray:none;stroke-opacity:1">
    <path
       inkscape:connector-curvature="0"
       id="path4770"
       d="m -81.466862,-62.128024 0,79.814869 7.993723,0 0,-4.000721 0,-71.812324 62.004002,0 0,-4.001824 -69.997725,0 z"
       style="fill:none;stroke:#0000ff;stroke-width:0.01;stroke-miterlimit:4;stroke-dasharray:none;stroke-opacity:1" />
    <path
       inkscape:connector-curvature="0"
       id="path4768"
       d="m -76.985482,-52.040233 0.45365,0.0667 0.412309,0.192924 0.326871,0.302619 0.20891,0.379786 0.07331,0.421129 -0.07331,0.420026 -0.20891,0.380337 -0.326871,0.302618 -0.412309,0.192925 -0.45365,0.0678 -0.456407,-0.0678 -0.411206,-0.192925 -0.326871,-0.302618 -0.20891,-0.380337 -0.07221,-0.420026 0.07221,-0.421129 0.20891,-0.379786 0.326871,-0.302619 0.411206,-0.192924 z"
       style="fill:none;stroke:#0000ff;stroke-width:0.01;stroke-miterlimit:4;stroke-dasharray:none;stroke-opacity:1" />
    <path
       inkscape:connector-curvature="0"
       id="path4766"
       d="m -75.792553,5.5228211 -0.327052,-0.302221 -0.412064,-0.193162 -0.454071,-0.06654 -0.456071,0.06654 -0.411064,0.193162 -0.327051,0.302221 -0.209033,0.379855 -0.07201,0.421445 0.07201,0.420521 0.209033,0.379856 0.327051,0.30222 0.411064,0.193162 0.456071,0.06654 0.454071,-0.06654 0.412064,-0.193162 0.327052,-0.30222 0.209032,-0.379856 0.07301,-0.420521 -0.07301,-0.421445 z"
       style="fill:none;stroke:#0000ff;stroke-width:0.01;stroke-miterlimit:4;stroke-dasharray:none;stroke-opacity:1" />
  </g>
  <g
     id="g4783"
     transform="matrix(-0.99999653,0,0,-1.0000038,110.28312,12.762202)"
     style="stroke:#0000ff;stroke-width:0.01;stroke-miterlimit:4;stroke-dasharray:none;stroke-opacity:1">
    <path
       id="path4772"
       d="m 106.76943,-69.258136 -0.32702,-0.302222 -0.41103,-0.193163 -0.45503,-0.06654 -0.45603,0.06654 -0.41103,0.193163 -0.32702,0.302222 -0.20901,0.379856 -0.072,0.421447 0.072,0.419598 0.20901,0.38078 0.32702,0.302222 0.41103,0.193163 0.45603,0.06747 0.45503,-0.06747 0.41103,-0.193163 0.32702,-0.302222 0.20901,-0.38078 0.072,-0.419598 -0.072,-0.421447 z"
       style="fill:none;stroke:#0000ff;stroke-width:0.01;stroke-miterlimit:4;stroke-dasharray:none;stroke-opacity:1"
       inkscape:connector-curvature="0" />
    <path
       transform="scale(0.28222222,0.28222222)"
       id="path4776"
       d="m 28.662109,-14.505859 0,14.17578088 360.765621,0.001953 -0.002,-282.81054488 -106.29101,0 0,14.17969 77.96679,0 0,254.449214 -332.439451,0.0039 z"
       style="fill:none;stroke:#0000ff;stroke-width:0.03543306;stroke-miterlimit:4;stroke-dasharray:none;stroke-opacity:1"
       inkscape:connector-curvature="0" />
    <path
       id="polygon12-7"
       d="m 106.76943,-12.257179 -0.32702,-0.302221 -0.41103,-0.193163 -0.45503,-0.06654 -0.45603,0.06654 -0.41103,0.193163 -0.32702,0.302221 -0.20902,0.379856 -0.072,0.421447 0.072,0.420522 0.20902,0.379856 0.32702,0.302222 0.41103,0.193163 0.45603,0.06654 0.45503,-0.06654 0.41103,-0.193163 0.32702,-0.302222 0.20901,-0.379856 0.072,-0.420522 -0.072,-0.421447 z"
       style="fill:none;stroke:#0000ff;stroke-width:0.01;stroke-miterlimit:4;stroke-dasharray:none;stroke-opacity:1"
       inkscape:connector-curvature="0" />
  </g>
  <g
     id="g4423-6-0-8"
     transform="matrix(0,-0.9999985,0.99999492,0,11.853539,253.20217)"
     style="stroke:#0000ff;stroke-width:0.01000003;stroke-miterlimit:4;stroke-dasharray:none;stroke-opacity:1">
    <path
       sodipodi:nodetypes="ccccccccccc"
       inkscape:connector-curvature="0"
       id="polygon4-7-8-7-3"
       d="m 188.97507,0.0250494 0,0.9751462 -2.97507,1 2.97507,1.0000001 0,74.0000003 -2.97507,1 2.97507,1 0,0.974751 -7.94949,0 0,-79.9498976 z"
       style="fill:none;stroke:#0000ff;stroke-width:0.01000003;stroke-miterlimit:4;stroke-dasharray:none;stroke-opacity:1" />
    <polygon
       transform="matrix(1.000156,0,0,0.9242219,178.0003,-13.504602)"
       id="polygon8-0-9-0-5"
       style="fill:none;stroke:#0000ff;stroke-width:0.0104011;stroke-miterlimit:4;stroke-dasharray:none;stroke-opacity:1"
       points="7.119,87.373 6.708,87.582 6.381,87.909 6.172,88.32 6.1,88.776 6.172,89.231 6.381,89.642 6.708,89.969 7.119,90.178 7.575,90.25 8.029,90.178 8.441,89.969 8.768,89.642 8.977,89.231 9.05,88.776 8.977,88.32 8.768,87.909 8.441,87.582 8.029,87.373 7.575,87.301 " />
    <polygon
       transform="matrix(1.0001542,0,0,0.92422195,178.00031,4.542183)"
       id="polygon14-1-9-6-1"
       style="fill:none;stroke:#0000ff;stroke-width:0.01040111;stroke-miterlimit:4;stroke-dasharray:none;stroke-opacity:1"
       points="6.708,6.381 6.381,6.708 6.172,7.119 6.1,7.575 6.172,8.029 6.381,8.441 6.708,8.768 7.119,8.977 7.575,9.05 8.029,8.977 8.441,8.768 8.768,8.441 8.977,8.029 9.05,7.575 8.977,7.119 8.768,6.708 8.441,6.381 8.029,6.172 7.575,6.1 7.119,6.172 " />
  </g>
  <g
     id="g4423-6-9-5"
     transform="matrix(0,0.9999985,0.99999492,0,12.135761,-127.62016)"
     style="stroke:#0000ff;stroke-width:0.01000003;stroke-miterlimit:4;stroke-dasharray:none;stroke-opacity:1">
    <path
       sodipodi:nodetypes="ccccccccccc"
       inkscape:connector-curvature="0"
       id="polygon4-7-8-2-3"
       d="m 188.97507,0.0250494 0,0.9751462 -2.97507,1 2.97507,1.0000001 0,74.0000003 -2.97507,1 2.97507,1 0,0.974751 -7.94949,0 0,-79.9498976 z"
       style="fill:none;stroke:#0000ff;stroke-width:0.01000003;stroke-miterlimit:4;stroke-dasharray:none;stroke-opacity:1" />
    <polygon
       transform="matrix(1.000156,0,0,0.9242219,178.0003,-13.504602)"
       id="polygon8-0-9-7-3"
       style="fill:none;stroke:#0000ff;stroke-width:0.0104011;stroke-miterlimit:4;stroke-dasharray:none;stroke-opacity:1"
       points="6.172,88.32 6.1,88.776 6.172,89.231 6.381,89.642 6.708,89.969 7.119,90.178 7.575,90.25 8.029,90.178 8.441,89.969 8.768,89.642 8.977,89.231 9.05,88.776 8.977,88.32 8.768,87.909 8.441,87.582 8.029,87.373 7.575,87.301 7.119,87.373 6.708,87.582 6.381,87.909 " />
    <polygon
       transform="matrix(1.0001542,0,0,0.92422195,178.00031,4.542183)"
       id="polygon14-1-9-3-1"
       style="fill:none;stroke:#0000ff;stroke-width:0.01040111;stroke-miterlimit:4;stroke-dasharray:none;stroke-opacity:1"
       points="6.1,7.575 6.172,8.029 6.381,8.441 6.708,8.768 7.119,8.977 7.575,9.05 8.029,8.977 8.441,8.768 8.768,8.441 8.977,8.029 9.05,7.575 8.977,7.119 8.768,6.708 8.441,6.381 8.029,6.172 7.575,6.1 7.119,6.172 6.708,6.381 6.381,6.708 6.172,7.119 " />
  </g>
  <path
     id="polygon5076-9"
     style="fill:none;stroke:#0000ff;stroke-width:0.01;stroke-miterlimit:4;stroke-dasharray:none;stroke-opacity:1"
     d="m 63.068663,5.9406738 0.221,-0.222 0.142,-0.278 0.049,-0.309 -0.049,-0.31 -0.142,-0.27799 -0.221,-0.22201 -0.279,-0.142 -0.30899,-0.048 -0.30901,0.048 -0.279,0.142 -0.221,0.22201 -0.142,0.27799 -0.049,0.31 0.049,0.309 0.142,0.278 0.221,0.222 0.279,0.142 0.30901,0.049 0.30899,-0.049 z m 61.685517,4.1058902 0,-2.8107602 -2.85859,0 0,-3.93199 2.85859,0 0,-3.08689002 c -41.515767,0 -83.031567,10e-6 -124.54737206,0 l -2.2e-4,3.08689002 2.99999996,0 0,3.93199 -2.99999996,0 2.2e-4,2.8107802 z"
     inkscape:connector-curvature="0"
     sodipodi:nodetypes="cccccccccccccccccccccccccccccccccc" />
  <path
     id="polygon5076-9-8"
     style="fill:none;stroke:#0000ff;stroke-width:0.01;stroke-miterlimit:4;stroke-dasharray:none;stroke-opacity:1"
     d="m 128.04043,118.27904 -0.222,-0.221 -0.278,-0.142 -0.309,-0.049 -0.30999,0.049 -0.278,0.142 -0.222,0.221 -0.142,0.279 -0.048,0.30901 0.048,0.30899 0.142,0.279 0.222,0.221 0.278,0.142 0.30999,0.049 0.309,-0.049 0.278,-0.142 0.222,-0.221 0.142,-0.279 0.049,-0.30899 -0.049,-0.30901 z m 4.10589,-61.685539 -2.81076,0 0,2.85859 -3.93199,0 0,-2.85859 -3.08689,0 c 0,41.515775 10e-6,83.031579 0,124.547379 l 3.08689,2.2e-4 0,-3 3.93199,0 0,3 2.81078,-2.2e-4 z"
     inkscape:connector-curvature="0"
     sodipodi:nodetypes="cccccccccccccccccccccccccccccccccc" />
  <path
     id="polygon5082"
     style="fill:none;stroke:#0000ff;stroke-width:0.01;stroke-miterlimit:4;stroke-dasharray:none;stroke-opacity:1"
     d="m 139.16333,79.954322 -0.278,0.142 -0.222,0.221 -0.142,0.279 -0.048,0.309 0.048,0.309 0.142,0.279 0.222,0.221 0.278,0.142 0.31,0.049 0.309,-0.049 0.278,-0.142 0.222,-0.221 0.142,-0.279 0.049,-0.309 -0.049,-0.309 -0.142,-0.279 -0.222,-0.221 -0.278,-0.142 -0.309,-0.049 z m -4.66957,-51.42806 2.8e-4,152.348728 3.00011,-1.5e-4 0,-2.99969 4.072,0 0,2.99955 3,-1.4e-4 -1.5e-4,-152.348188 -2.99971,0 0,2.82333 -4.07238,0 0,-2.82333 z"
     inkscape:connector-curvature="0" />
  <path
     id="polygon5076-6"
     style="fill:none;stroke:#0000ff;stroke-width:0.01;stroke-miterlimit:4;stroke-dasharray:none;stroke-opacity:1"
     d="m 158.37109,25.562555 3.1e-4,152.348555 3,-8e-5 0,3.00028 4.072,0 0,-3.0004 3,-8e-5 -1e-4,-152.348325 -2.8219,3.8e-5 0,2.999766 -4.25,0 0,-2.999758 z m 4.66949,99.019925 -0.278,0.142 -0.222,0.221 -0.142,0.279 -0.048,0.309 0.048,0.309 0.142,0.279 0.222,0.221 0.278,0.142 0.31,0.049 0.309,-0.049 0.278,-0.142 0.222,-0.221 0.142,-0.279 0.049,-0.309 -0.049,-0.309 -0.142,-0.279 -0.222,-0.221 -0.278,-0.142 -0.309,-0.049 z"
     inkscape:connector-curvature="0" />
  <path
     id="polygon5082-3"
     style="fill:none;stroke:#0000ff;stroke-width:0.01;stroke-miterlimit:4;stroke-dasharray:none;stroke-opacity:1"
     d="m 151.17865,79.954325 -0.278,0.142 -0.222,0.221 -0.142,0.278999 -0.048,0.309 0.048,0.309002 0.142,0.278999 0.222,0.221 0.278,0.142 0.31,0.049 0.309,-0.049 0.278,-0.142 0.222,-0.221 0.142,-0.278999 0.049,-0.309002 -0.049,-0.309 -0.142,-0.278999 -0.222,-0.221 -0.278,-0.142 -0.309,-0.049 z m -4.66957,-51.42806 2.8e-4,152.348725 3.00011,-1.5e-4 0,-2.99969 4.072,0 0,2.99955 3,-1.3e-4 -1.5e-4,-152.348195 -2.99971,0 0,2.82333 -4.07238,0 0,-2.82333 z"
     inkscape:connector-curvature="0" />
  <path
     id="polygon5076-6-6"
     style="fill:none;stroke:#0000ff;stroke-width:0.01;stroke-miterlimit:4;stroke-dasharray:none;stroke-opacity:1"
     d="m 170.64172,25.562549 3.1e-4,152.348561 3,-8e-5 0,3.00028 4.072,0 0,-3.0004 3,-8e-5 -1e-4,-152.348331 -2.8219,3.8e-5 0,2.999767 -4.25,0 0,-2.999759 z m 4.66949,99.019921 -0.278,0.142 -0.222,0.221 -0.142,0.27901 -0.048,0.30899 0.048,0.309 0.142,0.279 0.222,0.221 0.278,0.142 0.31,0.049 0.309,-0.049 0.278,-0.142 0.222,-0.221 0.142,-0.279 0.049,-0.309 -0.049,-0.30899 -0.142,-0.27901 -0.222,-0.221 -0.278,-0.142 -0.309,-0.049 z"
     inkscape:connector-curvature="0" />
  <path
     inkscape:connector-curvature="0"
     id="polygon5084"
     style="fill:none;stroke:#0000ff;stroke-width:0.01;stroke-miterlimit:4;stroke-dasharray:none;stroke-opacity:1"
     d="m 123.81561,20.573376 -0.142,0.278 -0.048,0.309 0.048,0.31 0.142,0.278 0.222,0.222 0.278,0.142 0.31,0.048 0.309,-0.048 0.278,-0.142 0.222,-0.222 0.142,-0.278 0.049,-0.31 -0.049,-0.309 -0.142,-0.278 -0.222,-0.222 -0.278,-0.142 -0.309,-0.049 -0.31,0.049 -0.278,0.142 z m -4.13282,-4.41282 0,3.00011 -3,0 0,4.001 3,0 0,3 6.01845,0 1.21577,-0.0105 0.23428,-0.027 0.23097,-0.0457 0.2271,-0.0639 0.22047,-0.0821 0.21333,-0.0981 0.20614,-0.11576 0.19569,-0.130079 0.1852,-0.146071 0.17308,-0.159859 0.15985,-0.173081 0.14608,-0.18521 0.13008,-0.19568 0.11577,-0.20615 0.0981,-0.212769 0.0821,-0.221041 0.0639,-0.2271 0.0457,-0.23096 0.027,-0.23426 0.01,-0.23592 -7e-5,-6.99975 -2.99999,-3e-5 0,-2.99898 -3.999,0 0,2.99892 z" />
  <path
     inkscape:connector-curvature="0"
     id="polygon5084-1"
     style="fill:none;stroke:#0000ff;stroke-width:0.01;stroke-miterlimit:4;stroke-dasharray:none;stroke-opacity:1"
     d="m 123.38123,37.788932 0.142,0.278 0.048,0.309 -0.048,0.31 -0.142,0.278 -0.222,0.222 -0.278,0.142 -0.31,0.048 -0.309,-0.048 -0.278,-0.142 -0.222,-0.222 -0.142,-0.278 -0.049,-0.31 0.049,-0.309 0.142,-0.278 0.222,-0.222 0.278,-0.142 0.309,-0.049 0.31,0.049 0.278,0.142 z m 4.13282,-4.41282 0,3.00011 3,0 0,4.001 -3,0 0,3 -6.01845,0 -1.21577,-0.0105 -0.23428,-0.027 -0.23097,-0.0457 -0.2271,-0.0639 -0.22047,-0.0821 -0.21333,-0.0981 -0.20614,-0.11576 -0.19569,-0.130079 -0.1852,-0.146071 -0.17308,-0.159859 -0.15985,-0.173081 -0.14608,-0.18521 -0.13008,-0.19568 -0.11577,-0.20615 -0.0981,-0.212769 -0.0821,-0.221041 -0.0639,-0.2271 -0.0457,-0.23096 -0.027,-0.23426 -0.01,-0.23592 7e-5,-6.999749 2.99999,-3e-5 0,-2.99898 3.99901,0 0,2.99892 z" />
  <path
     inkscape:connector-curvature="0"
     id="polygon5084-1-9"
     style="fill:none;stroke:#0000ff;stroke-width:0.01;stroke-miterlimit:4;stroke-dasharray:none;stroke-opacity:1"
     d="m 158.08393,6.3283764 -0.278,0.142 -0.309,0.048 -0.31,-0.048 -0.27799,-0.142 -0.22201,-0.222 -0.14199,-0.278 -0.048,-0.31 0.048,-0.309 0.14199,-0.277999 0.22201,-0.222001 0.27799,-0.142 0.31,-0.049 0.309,0.049 0.278,0.142 0.22201,0.222001 0.14199,0.277999 0.049,0.309 -0.049,0.31 -0.14199,0.278 z m 4.41283,4.1328196 -3.00011,0 0,3 -4.001,0 0,-3 -3,0 0,-6.0184486 0.0105,-1.215771 0.027,-0.23428 0.0457,-0.23097 0.0639,-0.227099 0.0821,-0.22047 0.0981,-0.21333 0.11576,-0.206141 0.13007,-0.19569 0.14608,-0.185199 0.15985,-0.17308 0.17309,-0.159851 0.18521,-0.146079 0.19568,-0.13007998 0.20615,-0.115771 0.21276,-0.0981 0.22105,-0.0821 0.2271,-0.0639 0.23096,-0.0457 0.23426,-0.027 0.23592,-0.01 6.99974,6.1e-5 3e-5,2.99999898 2.99898,0 0,3.999001 -2.99892,0 z" />
  <path
     inkscape:connector-curvature="0"
     id="polygon5084-1-9-3"
     style="fill:none;stroke:#0000ff;stroke-width:0.01;stroke-miterlimit:4;stroke-dasharray:none;stroke-opacity:1"
     d="m 174.85496,6.0504264 -0.142,-0.278 -0.048,-0.309 0.048,-0.31 0.142,-0.277999 0.222,-0.222001 0.278,-0.141999 0.31,-0.048 0.309,0.048 0.278,0.141999 0.222,0.222001 0.142,0.277999 0.049,0.31 -0.049,0.309 -0.142,0.278 -0.222,0.222 -0.278,0.141999 -0.309,0.049 -0.31,-0.049 -0.278,-0.141999 z m -4.13282,4.4128206 0,-3.0001096 -3,0 0,-4.001 3,0 0,-2.99999998 6.01845,0 1.21577,0.0105 0.23428,0.027 0.23097,0.0457 0.2271,0.0639 0.22047,0.0821 0.21333,0.0981 0.20614,0.115761 0.19569,0.13007898 0.1852,0.146071 0.17308,0.159858 0.15985,0.173082 0.14608,0.185209 0.13008,0.195681 0.11577,0.20615 0.0981,0.212769 0.0821,0.221041 0.0639,0.2271 0.0457,0.23096 0.027,0.23426 0.01,0.23592 -6e-5,6.9997476 -3,3e-5 0,2.998981 -3.999,0 0,-2.998921 z" />
</svg>
